Coordinates
version=1
nRows=41
nColumns=38
inDegrees=no

Units are S.I. units (second, meters, Newtons, ...)
If the header above contains a line with 'inDegrees', this indicates whether rotational values are in degrees (yes) or radians (no).

endheader
time	pelvis_tilt	pelvis_list	pelvis_rotation	pelvis_tx	pelvis_ty	pelvis_tz	hip_flexion_r	hip_adduction_r	hip_rotation_r	knee_angle_r	ankle_angle_r	subtalar_angle_r	mtp_angle_r	hip_flexion_l	hip_adduction_l	hip_rotation_l	knee_angle_l	ankle_angle_l	subtalar_angle_l	mtp_angle_l	lumbar_extension	lumbar_bending	lumbar_rotation	arm_flex_r	arm_add_r	arm_rot_r	elbow_flex_r	pro_sup_r	wrist_flex_r	wrist_dev_r	arm_flex_l	arm_add_l	arm_rot_l	elbow_flex_l	pro_sup_l	wrist_flex_l	wrist_dev_l
1.62	-2.90008	1.35233	-1.95734	0.602893	1.48569	1.06073	0.117365	-0.0540935	0.125214	1.31612	-0.247077	0	0	-0.100109	0.115001	-0.292744	0.390038	-0.175644	0	0	-0.372604	-0.0752802	-0.0610566	-0.173394	-0.158343	-0.32995	0.443351	0.600197	0	0	-0.144988	-0.555212	0.544944	0.716802	1.00678	0	0
1.63	-2.92577	1.35397	-1.92774	0.602431	1.4959	1.06185	0.140309	-0.0466444	0.121441	1.30796	-0.235047	0	0	-0.116166	0.112121	-0.287986	0.379753	-0.172532	0	0	-0.373362	-0.0650499	-0.0629542	-0.175182	-0.162045	-0.321111	0.445417	0.591668	0	0	-0.126986	-0.568028	0.548686	0.72945	1.00788	0	0
1.64	-2.9508	1.35583	-1.89882	0.602008	1.5061	1.06275	0.162568	-0.0398047	0.117672	1.29554	-0.223317	0	0	-0.131524	0.108984	-0.283315	0.369863	-0.169692	0	0	-0.373476	-0.0548806	-0.0654173	-0.17655	-0.165714	-0.312094	0.447529	0.585143	0	0	-0.110231	-0.580358	0.549631	0.742499	1.00871	0	0
1.65	-2.97253	1.35881	-1.87284	0.601693	1.51633	1.06342	0.184893	-0.0335455	0.113627	1.27885	-0.207721	0	0	-0.145014	0.105837	-0.276687	0.36025	-0.166785	0	0	-0.37213	-0.0455229	-0.0696499	-0.167942	-0.154138	-0.373179	0.439233	0.657953	0	0	-0.103312	-0.584199	0.514351	0.75468	1.04414	0	0
1.66	-2.99451	1.36132	-1.84686	0.601513	1.52647	1.06388	0.205717	-0.0275949	0.110619	1.25831	-0.199621	0	0	-0.158096	0.102225	-0.270031	0.352201	-0.164115	0	0	-0.370924	-0.0363499	-0.0729514	-0.168843	-0.157359	-0.362588	0.441885	0.649146	0	0	-0.0864997	-0.599458	0.521878	0.768549	1.04085	0	0
1.67	-3.01589	1.36401	-1.82133	0.601396	1.53662	1.06414	0.225366	-0.0221357	0.108355	1.2335	-0.190775	0	0	-0.170459	0.0983534	-0.262871	0.344681	-0.161095	0	0	-0.36952	-0.0274415	-0.0765005	-0.169461	-0.160309	-0.352719	0.444846	0.641696	0	0	-0.0704997	-0.614054	0.526283	0.782334	1.03965	0	0
1.68	-3.03668	1.36707	-1.79634	0.601356	1.54683	1.06423	0.243801	-0.0170558	0.106999	1.20418	-0.183217	0	0	-0.182043	0.0939953	-0.256978	0.337867	-0.157941	0	0	-0.367631	-0.0187728	-0.0800477	-0.169886	-0.162964	-0.344105	0.447835	0.635037	0	0	-0.0550901	-0.627863	0.528459	0.795592	1.04038	0	0
1.69	-3.05652	1.37042	-1.77262	0.601421	1.55714	1.06417	0.260794	-0.0123722	0.106153	1.17057	-0.176246	0	0	-0.193159	0.0896524	-0.253151	0.331366	-0.15483	0	0	-0.364977	-0.0106938	-0.0833462	-0.169875	-0.165387	-0.336608	0.449996	0.629068	0	0	-0.0402768	-0.641108	0.529552	0.80812	1.043	0	0
1.7	-3.07393	1.37404	-1.75188	0.601569	1.56749	1.06392	0.276656	-0.00858991	0.106272	1.13334	-0.168857	0	0	-0.20341	0.0859707	-0.250606	0.325976	-0.151583	0	0	-0.361582	-0.00355587	-0.0863701	-0.169458	-0.167548	-0.330202	0.451664	0.62371	0	0	-0.0262522	-0.653646	0.529312	0.820181	1.04574	0	0
1.71	-3.0885	1.37743	-1.73352	0.601661	1.57774	1.0635	0.290968	-0.0066075	0.10594	1.09288	-0.161466	0	0	-0.213419	0.0830788	-0.24748	0.321073	-0.148307	0	0	-0.358786	0.00283787	-0.0898733	-0.168614	-0.169216	-0.325268	0.453766	0.61953	0	0	-0.0123236	-0.666189	0.528658	0.832498	1.04788	0	0
1.72	-3.09845	1.38254	-1.72005	0.601854	1.58809	1.0629	0.305533	-0.00625092	0.105619	1.04893	-0.151632	0	0	-0.221893	0.0811201	-0.242542	0.315097	-0.144429	0	0	-0.354653	0.00788103	-0.0925872	-0.150809	-0.143314	-0.453042	0.43876	0.762877	0	0	-0.00519472	-0.670606	0.501328	0.84299	1.07741	0	0
1.73	-3.1089	1.38593	-1.70703	0.602038	1.59844	1.06209	0.316504	-0.00696676	0.104574	1.00235	-0.141402	0	0	-0.232011	0.0793708	-0.239627	0.309621	-0.140205	0	0	-0.351687	0.0131336	-0.0944895	-0.163114	-0.164062	-0.354712	0.453912	0.655883	0	0	0.0123157	-0.685527	0.513968	0.854318	1.06924	0	0
1.74	-3.11218	1.39139	-1.70129	0.602287	1.60901	1.06094	0.327991	-0.0096001	0.102212	0.952818	-0.133603	0	0	-0.239395	0.0786543	-0.236083	0.304983	-0.136494	0	0	-0.346065	0.0167746	-0.0963433	-0.162168	-0.163442	-0.360367	0.455292	0.663434	0	0	0.026026	-0.696842	0.515628	0.864639	1.07127	0	0
1.75	-3.11156	1.39657	-1.69974	0.602582	1.61968	1.05964	0.337583	-0.0136344	0.097904	0.900959	-0.125711	0	0	-0.247341	0.0789471	-0.231733	0.29963	-0.132488	0	0	-0.340519	0.0194492	-0.098262	-0.161293	-0.162537	-0.367193	0.456956	0.670626	0	0	0.0390421	-0.707939	0.517262	0.874893	1.07302	0	0
1.76	-3.10822	1.40183	-1.70101	0.602947	1.63046	1.0582	0.345775	-0.0185388	0.0904909	0.847044	-0.117981	0	0	-0.255412	0.0799405	-0.226516	0.294122	-0.128263	0	0	-0.334472	0.0214974	-0.100577	-0.160263	-0.161474	-0.374638	0.458277	0.677868	0	0	0.0513369	-0.718492	0.518694	0.884022	1.07562	0	0
1.77	-3.10002	1.4081	-1.70677	0.603224	1.64134	1.05654	0.354042	-0.024857	0.0793253	0.7911	-0.111408	0	0	-0.262546	0.0813984	-0.220686	0.288571	-0.124063	0	0	-0.326946	0.0230871	-0.103554	-0.159214	-0.160568	-0.382364	0.459045	0.685668	0	0	0.0628609	-0.727828	0.519425	0.891866	1.07933	0	0
1.78	-3.0868	1.41498	-1.7175	0.603526	1.65233	1.05473	0.361842	-0.0319252	0.0647142	0.732855	-0.10643	0	0	-0.268854	0.0832088	-0.216181	0.283471	-0.120586	0	0	-0.31831	0.0239867	-0.106983	-0.157748	-0.159677	-0.389977	0.458633	0.694505	0	0	0.0729099	-0.735717	0.518078	0.898463	1.08403	0	0
1.79	-3.07499	1.4194	-1.72635	0.603805	1.66332	1.053	0.3652	-0.0388367	0.0442536	0.672442	-0.100881	0	0	-0.27833	0.0848865	-0.211404	0.277298	-0.117341	0	0	-0.313787	0.025613	-0.106669	-0.166863	-0.170168	-0.346756	0.47053	0.638892	0	0	0.0969131	-0.749413	0.548257	0.904141	1.06697	0	0
1.8	-3.06171	1.4246	-1.73555	0.60406	1.67444	1.05122	0.367399	-0.045347	0.0183876	0.610101	-0.0974303	0	0	-0.28665	0.0859307	-0.206504	0.27226	-0.114252	0	0	-0.307565	0.0271761	-0.109451	-0.166979	-0.169093	-0.355654	0.471998	0.645165	0	0	0.111974	-0.757145	0.557026	0.907954	1.06782	0	0
1.81	-3.04828	1.43048	-1.74403	0.604324	1.68566	1.04936	0.368489	-0.0508199	-0.0110882	0.546962	-0.0939809	0	0	-0.293754	0.0860224	-0.202644	0.269076	-0.110919	0	0	-0.299653	0.0288578	-0.115268	-0.164034	-0.166995	-0.367501	0.468827	0.660351	0	0	0.12055	-0.762182	0.554675	0.910634	1.07539	0	0
1.82	-3.04362	1.43366	-1.74277	0.604595	1.69685	1.04772	0.363765	-0.0547263	-0.0433778	0.481879	-0.0947096	0	0	-0.304253	0.0846834	-0.198267	0.265553	-0.107857	0	0	-0.296345	0.0320094	-0.119184	-0.16563	-0.168999	-0.360539	0.471925	0.650999	0	0	0.13623	-0.769152	0.566087	0.91299	1.07404	0	0
1.83	-3.04423	1.43662	-1.73645	0.605132	1.70815	1.04609	0.357036	-0.0563036	-0.0720323	0.419735	-0.0981911	0	0	-0.314993	0.0819307	-0.195537	0.262675	-0.105033	0	0	-0.293355	0.0356071	-0.122423	-0.166749	-0.170854	-0.354028	0.473837	0.642436	0	0	0.151529	-0.775397	0.577625	0.914564	1.0725	0	0
1.84	-3.05382	1.43896	-1.72044	0.605869	1.71948	1.04453	0.349317	-0.0556702	-0.0962546	0.365365	-0.105859	0	0	-0.325688	0.0769601	-0.192879	0.261389	-0.102266	0	0	-0.291915	0.0402669	-0.125352	-0.16269	-0.162762	-0.391119	0.471064	0.681387	0	0	0.165446	-0.779782	0.58425	0.915804	1.07602	0	0
1.85	-3.06895	1.4417	-1.6987	0.606778	1.73088	1.04285	0.345895	-0.0536258	-0.114282	0.330401	-0.106479	0	0	-0.334581	0.0702702	-0.19156	0.263091	-0.0991116	0	0	-0.289606	0.0455832	-0.128949	-0.163657	-0.164548	-0.383199	0.472307	0.670725	0	0	0.180437	-0.786245	0.599033	0.91679	1.07078	0	0
1.86	-3.08531	1.44392	-1.67559	0.607782	1.74232	1.04117	0.34755	-0.0520794	-0.12788	0.319481	-0.10359	0	0	-0.343174	0.0632954	-0.190187	0.266387	-0.0958443	0	0	-0.287893	0.0509375	-0.133001	-0.164089	-0.165616	-0.377889	0.47319	0.662554	0	0	0.193164	-0.791792	0.610769	0.91791	1.06614	0	0
1.87	-3.10024	1.44552	-1.65417	0.608822	1.75384	1.03954	0.352794	-0.0514688	-0.139702	0.328166	-0.0979918	0	0	-0.35188	0.0568527	-0.189304	0.270824	-0.0928106	0	0	-0.286901	0.0559522	-0.137277	-0.164129	-0.16634	-0.37406	0.473819	0.656697	0	0	0.203335	-0.796589	0.619457	0.919273	1.06195	0	0
1.88	-3.1112	1.44669	-1.63744	0.609918	1.76545	1.03795	0.361082	-0.0520746	-0.151125	0.353784	-0.0901384	0	0	-0.360454	0.0513942	-0.18934	0.276446	-0.0892803	0	0	-0.28652	0.060253	-0.141059	-0.164928	-0.167151	-0.369442	0.475662	0.649936	0	0	0.211695	-0.801194	0.626977	0.921414	1.05685	0	0
1.89	-3.12097	1.44738	-1.6232	0.611165	1.77717	1.03642	0.368183	-0.052274	-0.158345	0.384419	-0.086487	0	0	-0.368672	0.0466869	-0.191636	0.283566	-0.0865037	0	0	-0.286673	0.0641135	-0.144097	-0.165885	-0.167949	-0.365733	0.478261	0.643541	0	0	0.217121	-0.805215	0.631543	0.92417	1.05218	0	0
1.9	-3.12838	1.44963	-1.61151	0.612589	1.78919	1.03486	0.374359	-0.0518229	-0.160986	0.4158	-0.0866575	0	0	-0.373983	0.0418938	-0.195275	0.293359	-0.0841274	0	0	-0.285415	0.0676352	-0.145285	-0.156962	-0.147713	-0.457372	0.471635	0.740531	0	0	0.220915	-0.807011	0.632995	0.926605	1.05085	0	0
1.91	-3.13928	1.4506	-1.59632	0.614081	1.80141	1.03338	0.374997	-0.049601	-0.159103	0.44434	-0.0913272	0	0	-0.379794	0.0361357	-0.201109	0.305173	-0.0832577	0	0	-0.284232	0.0716445	-0.148773	-0.164781	-0.156646	-0.415018	0.479016	0.688855	0	0	0.221476	-0.810847	0.637147	0.930171	1.04217	0	0
1.92	3.13756	1.45246	-1.58523	0.615748	1.81393	1.03189	0.372887	-0.0464365	-0.152739	0.47102	-0.0968288	0	0	-0.383722	0.0301753	-0.206972	0.318988	-0.083137	0	0	-0.281546	0.0748144	-0.152952	-0.166337	-0.153454	-0.426985	0.4802	0.6988	0	0	0.215923	-0.812401	0.630824	0.933843	1.04158	0	0
1.93	3.13308	1.45391	-1.57575	0.617516	1.82662	1.03049	0.368288	-0.042841	-0.1453	0.49555	-0.102104	0	0	-0.387362	0.0241174	-0.211824	0.334245	-0.0841703	0	0	-0.279414	0.0778053	-0.156639	-0.169801	-0.150652	-0.436707	0.483231	0.705961	0	0	0.210124	-0.814055	0.626491	0.937987	1.03991	0	0
1.94	3.12163	1.45548	-1.55949	0.619354	1.83929	1.02929	0.365276	-0.0394967	-0.139638	0.515788	-0.109767	0	0	-0.388806	0.016673	-0.216926	0.354005	-0.0849848	0	0	-0.27728	0.0818814	-0.160064	-0.173892	-0.15151	-0.431231	0.485603	0.696745	0	0	0.203073	-0.814321	0.621589	0.941323	1.03753	0	0
1.95	3.09549	1.45594	-1.52905	0.621113	1.85182	1.02864	0.363788	-0.0364861	-0.136203	0.526979	-0.116822	0	0	-0.389392	0.00744688	-0.220439	0.377727	-0.087496	0	0	-0.276935	0.0883924	-0.162213	-0.174946	-0.153525	-0.42561	0.483595	0.687672	0	0	0.196791	-0.811892	0.6174	0.942046	1.03646	0	0
1.96	3.05547	1.45496	-1.48563	0.62276	1.86433	1.02859	0.360721	-0.0308933	-0.133113	0.53151	-0.125901	0	0	-0.38919	-0.00319765	-0.223428	0.405546	-0.0921314	0	0	-0.277899	0.0971068	-0.163189	-0.175471	-0.156577	-0.419322	0.48071	0.680415	0	0	0.189866	-0.806677	0.612959	0.94038	1.03645	0	0
1.97	3.00702	1.45473	-1.43554	0.6245	1.87694	1.02893	0.357005	-0.0219009	-0.126058	0.536955	-0.147034	0	0	-0.385248	-0.0143499	-0.226902	0.438397	-0.0996161	0	0	-0.277482	0.106561	-0.162921	-0.166924	-0.146139	-0.478978	0.469835	0.749962	0	0	0.175807	-0.796177	0.594195	0.936877	1.04842	0	0
1.98	2.95578	1.45398	-1.38556	0.626352	1.88959	1.02955	0.35252	-0.0111352	-0.113847	0.547638	-0.169342	0	0	-0.379048	-0.02472	-0.230709	0.47578	-0.109465	0	0	-0.277544	0.116364	-0.160166	-0.172161	-0.156564	-0.444239	0.471575	0.711317	0	0	0.161814	-0.786103	0.580918	0.933618	1.05097	0	0
1.99	2.90984	1.45439	-1.34348	0.62843	1.90229	1.03025	0.350448	-0.00069638	-0.0957777	0.562394	-0.180452	0	0	-0.368838	-0.0329051	-0.232526	0.517462	-0.121053	0	0	-0.276894	0.124865	-0.154641	-0.17114	-0.157474	-0.454914	0.467368	0.721911	0	0	0.146246	-0.775093	0.566762	0.930921	1.0525	0	0
2	2.87275	1.45405	-1.31157	0.630736	1.91491	1.03108	0.347614	0.00963183	-0.0728857	0.577304	-0.186391	0	0	-0.356654	-0.039123	-0.231421	0.562787	-0.132999	0	0	-0.278125	0.132164	-0.146426	-0.174712	-0.161046	-0.450289	0.468854	0.71287	0	0	0.135876	-0.767749	0.567428	0.929625	1.04198	0	0
2.01	2.84206	1.45558	-1.28545	0.633141	1.92751	1.03186	0.34567	0.0187849	-0.0512519	0.591842	-0.192293	0	0	-0.338616	-0.0446005	-0.228493	0.612994	-0.149695	0	0	-0.276332	0.137363	-0.141714	-0.177939	-0.164254	-0.443413	0.470259	0.70382	0	0	0.116334	-0.75793	0.552419	0.928757	1.04191	0	0
2.02	2.81706	1.45637	-1.26267	0.635414	1.93998	1.03278	0.34094	0.0261134	-0.039229	0.603439	-0.192972	0	0	-0.3178	-0.0504848	-0.223206	0.666139	-0.169008	0	0	-0.275173	0.142157	-0.139594	-0.18039	-0.166605	-0.438066	0.471797	0.694927	0	0	0.0960149	-0.748302	0.537164	0.928471	1.04152	0	0
